<?xml version="1.0" encoding="UTF-8" standalone="no"?>
<!-- Created with Inkscape (http://www.inkscape.org/) -->

<svg
   width="210mm"
   height="297mm"
   viewBox="0 0 210 297"
   version="1.1"
   id="svg5"
   inkscape:version="1.1.1 (3bf5ae0d25, 2021-09-20)"
   sodipodi:docname="logo.svg"
   xmlns:inkscape="http://www.inkscape.org/namespaces/inkscape"
   xmlns:sodipodi="http://sodipodi.sourceforge.net/DTD/sodipodi-0.dtd"
   xmlns:xlink="http://www.w3.org/1999/xlink"
   xmlns="http://www.w3.org/2000/svg"
   xmlns:svg="http://www.w3.org/2000/svg">
  <sodipodi:namedview
     id="namedview7"
     pagecolor="#ffffff"
     bordercolor="#666666"
     borderopacity="1.0"
     inkscape:pageshadow="2"
     inkscape:pageopacity="0"
     inkscape:pagecheckerboard="true"
     inkscape:document-units="mm"
     showgrid="false"
     showguides="true"
     inkscape:guide-bbox="true"
     inkscape:zoom="1.0998546"
     inkscape:cx="447.78646"
     inkscape:cy="476.88122"
     inkscape:window-width="1720"
     inkscape:window-height="1377"
     inkscape:window-x="-8"
     inkscape:window-y="-8"
     inkscape:window-maximized="0"
     inkscape:current-layer="layer1" />
  <defs
     id="defs2">
    <linearGradient
       inkscape:collect="always"
       id="linearGradient1047">
      <stop
         style="stop-color:#ff6600;stop-opacity:1;"
         offset="0"
         id="stop1194" />
      <stop
         style="stop-color:#ff8500;stop-opacity:0.32931727"
         offset="0.7984398"
         id="stop1568" />
      <stop
         style="stop-color:#ff6700;stop-opacity:0.67450982"
         offset="1"
         id="stop1196" />
    </linearGradient>
    <radialGradient
       inkscape:collect="always"
       xlink:href="#linearGradient1047"
       id="radialGradient4793"
       cx="71.443268"
       cy="110.90722"
       fx="71.443268"
       fy="110.90722"
       r="35"
       gradientUnits="userSpaceOnUse"
       gradientTransform="matrix(-1.3341179,2.6413633,-1.9558263,-0.9878622,383.67229,31.760638)" />
    <filter
       style="color-interpolation-filters:sRGB;"
       inkscape:label="Drop Shadow"
       id="filter6829"
       x="-0.086284407"
       y="-0.086284407"
       width="1.1725688"
       height="1.2444725">
      <feFlood
         flood-opacity="0.498039"
         flood-color="rgb(0,0,0)"
         result="flood"
         id="feFlood6819" />
      <feComposite
         in="flood"
         in2="SourceGraphic"
         operator="in"
         result="composite1"
         id="feComposite6821" />
      <feGaussianBlur
         in="composite1"
         stdDeviation="0.8"
         result="blur"
         id="feGaussianBlur6823" />
      <feOffset
         dx="0"
         dy="1.6"
         result="offset"
         id="feOffset6825" />
      <feComposite
         in="SourceGraphic"
         in2="offset"
         operator="over"
         result="composite2"
         id="feComposite6827" />
    </filter>
    <filter
       style="color-interpolation-filters:sRGB;"
       inkscape:label="Drop Shadow"
       id="filter6859"
       x="-0.031045862"
       y="-0.03984646"
       width="1.0620917"
       height="1.1128983">
      <feFlood
         flood-opacity="0.498039"
         flood-color="rgb(0,0,0)"
         result="flood"
         id="feFlood6849" />
      <feComposite
         in="flood"
         in2="SourceGraphic"
         operator="in"
         result="composite1"
         id="feComposite6851" />
      <feGaussianBlur
         in="composite1"
         stdDeviation="0.8"
         result="blur"
         id="feGaussianBlur6853" />
      <feOffset
         dx="0"
         dy="1.6"
         result="offset"
         id="feOffset6855" />
      <feComposite
         in="SourceGraphic"
         in2="offset"
         operator="over"
         result="composite2"
         id="feComposite6857" />
    </filter>
  </defs>
  <g
     inkscape:label="Warstwa 1"
     inkscape:groupmode="layer"
     id="layer1">
    <g
       id="g9995"
       inkscape:export-filename="H:\logo.png"
       inkscape:export-xdpi="96"
       inkscape:export-ydpi="96">
      <path
         id="rect972"
         style="opacity:0.97;fill:#000000;fill-opacity:1;stroke:#000000;stroke-width:1.15723"
         d="M 298.60938 266.96875 C 269.38638 266.96875 245.85938 290.49576 245.85938 319.71875 L 245.85938 515.42578 C 245.85938 544.64877 269.38638 568.17383 298.60938 568.17383 L 494.31641 568.17383 C 523.5394 568.17383 547.06445 544.64877 547.06445 515.42578 L 547.06445 319.71875 C 547.06445 290.49576 523.5394 266.96875 494.31641 266.96875 L 298.60938 266.96875 z M 304.72461 276.38281 L 488.20117 276.38281 C 515.59773 276.38281 537.65234 298.43743 537.65234 325.83398 L 537.65234 509.30859 C 537.65234 536.70515 515.59773 558.76172 488.20117 558.76172 L 304.72461 558.76172 C 277.32805 558.76172 255.27344 536.70515 255.27344 509.30859 L 255.27344 325.83398 C 255.27344 298.43743 277.32805 276.38281 304.72461 276.38281 z "
         transform="scale(0.26458333)" />
      <rect
         style="opacity:0.97;fill:url(#radialGradient4793);fill-opacity:1;stroke:none;stroke-width:0.268939"
         id="rect974"
         width="70"
         height="70"
         x="69.897217"
         y="75.482399"
         ry="12.258881" />
      <path
         id="path5061"
         style="opacity:0.97;fill:#ffffff;fill-opacity:1;stroke:none;stroke-width:0.176179;filter:url(#filter6859)"
         d="m 128.26347,94.005681 a 4.7254246,4.7254246 0 0 0 -4.72552,4.725171 4.7254246,4.7254246 0 0 0 2.18056,3.977798 22.540158,22.540158 0 0 1 1.71878,8.56015 22.540158,22.540158 0 0 1 -22.53989,22.54026 22.540158,22.540158 0 0 1 -22.540259,-22.54026 22.540158,22.540158 0 0 1 1.706045,-8.49787 4.7254246,4.7254246 0 0 0 2.152,-3.9599 4.7254246,4.7254246 0 0 0 -4.72552,-4.725517 4.7254246,4.7254246 0 0 0 -4.713477,4.407569 30.921925,30.921925 0 0 0 -2.80097,12.775718 30.921925,30.921925 0 0 0 30.922181,30.92184 30.921925,30.921925 0 0 0 30.92181,-30.92184 30.921925,30.921925 0 0 0 -2.84123,-12.852793 4.7254246,4.7254246 0 0 0 -4.71451,-4.410326 z" />
      <circle
         style="opacity:0.97;fill:#ffffff;fill-opacity:1;stroke:none;stroke-width:0.305924;filter:url(#filter6829)"
         id="path6195"
         cx="104.89722"
         cy="81.249847"
         r="11.125997" />
      <g
         id="g9984"
         transform="translate(-3.1936808)">
        <path
           d="m 89.016857,173.8154 q -0.120872,0.65392 -0.447237,2.46856 -0.169223,1.06262 -0.290095,2.48491 H 77.340357 q -0.06044,-3.8418 -0.302187,-12.65341 -0.157137,-4.51207 -0.568111,-12.45724 h 8.388707 l -0.688985,20.82745 q 1.172484,0 3.517454,-0.34331 0.483498,-0.0653 1.329622,-0.32696 z"
           style="font-size:28.7893px;line-height:1.25;font-family:'Showcard Gothic';-inkscape-font-specification:'Showcard Gothic';stroke-width:0.719733"
           id="path9895" />
        <path
           d="m 105.79427,165.67406 q 0,5.77087 -2.19991,9.7598 -2.30871,4.16876 -5.91078,4.16876 -3.71086,0 -6.007479,-4.20145 -2.163656,-3.95624 -2.163656,-9.72711 0,-6.16323 2.357059,-9.67807 2.224097,-3.30231 5.814076,-3.30231 3.52954,0 5.75364,3.31866 2.35705,3.53119 2.35705,9.66172 z m -5.814072,2.87726 q 0,-4.54476 -2.272447,-4.54476 -2.212007,0 -2.212007,4.57745 0,1.83099 0.5802,3.41675 0.652721,1.78195 1.607636,1.78195 0.930735,0 1.643897,-1.81464 0.652721,-1.65115 0.652721,-3.41675 z"
           style="font-size:28.7893px;line-height:1.25;font-family:'Showcard Gothic';-inkscape-font-specification:'Showcard Gothic';fill:#ff6600;stroke-width:0.719733"
           id="path9897" />
        <path
           d="m 122.87388,168.02818 q -0.12088,1.38959 -0.36263,5.24773 -0.12087,2.30508 -0.22966,5.46026 -1.61972,0.63758 -4.7262,0.63758 -4.61742,0 -7.50633,-2.81188 -3.40866,-3.35135 -3.40866,-9.97232 0,-6.34306 2.98561,-9.90693 2.80428,-3.35136 7.38544,-3.35136 1.72851,0 3.71085,0.35966 l 0.66481,10.31564 q -0.79777,-0.40872 -2.27244,-0.40872 -1.87356,0 -3.38449,1.55308 -1.69225,1.74924 -1.69225,4.44668 0,2.5503 1.43841,3.93988 1.20875,1.17706 2.79221,1.11167 l -0.1934,-3.28596 q -0.0725,-1.01358 -0.32637,-3.33501 z"
           style="font-size:28.7893px;line-height:1.25;font-family:'Showcard Gothic';-inkscape-font-specification:'Showcard Gothic';stroke-width:0.719733"
           id="path9899" />
        <path
           d="m 139.71173,165.67406 q 0,5.77087 -2.19992,9.7598 -2.30871,4.16876 -5.91078,4.16876 -3.71085,0 -6.00747,-4.20145 -2.16365,-3.95624 -2.16365,-9.72711 0,-6.16323 2.35705,-9.67807 2.22409,-3.30231 5.81407,-3.30231 3.52955,0 5.75365,3.31866 2.35705,3.53119 2.35705,9.66172 z m -5.81407,2.87726 q 0,-4.54476 -2.27245,-4.54476 -2.21201,0 -2.21201,4.57745 0,1.83099 0.5802,3.41675 0.65272,1.78195 1.60763,1.78195 0.93075,0 1.6439,-1.81464 0.65273,-1.65115 0.65273,-3.41675 z"
           style="font-size:28.7893px;line-height:1.25;font-family:'Showcard Gothic';-inkscape-font-specification:'Showcard Gothic';fill:#ff6600;stroke-width:0.719733"
           id="path9901" />
      </g>
    </g>
  </g>
</svg>
