<?xml version="1.0" encoding="UTF-8" standalone="no"?>
<!-- Created with Inkscape (http://www.inkscape.org/) -->

<svg
   width="210mm"
   height="297mm"
   viewBox="0 0 210 297"
   version="1.1"
   id="svg5"
   sodipodi:docname="kola_olimpijskie.svg"
   inkscape:version="1.1.1 (3bf5ae0d25, 2021-09-20)"
   xmlns:inkscape="http://www.inkscape.org/namespaces/inkscape"
   xmlns:sodipodi="http://sodipodi.sourceforge.net/DTD/sodipodi-0.dtd"
   xmlns="http://www.w3.org/2000/svg"
   xmlns:svg="http://www.w3.org/2000/svg">
  <sodipodi:namedview
     id="namedview7"
     pagecolor="#ffffff"
     bordercolor="#666666"
     borderopacity="1.0"
     inkscape:pageshadow="2"
     inkscape:pageopacity="0.0"
     inkscape:pagecheckerboard="0"
     inkscape:document-units="mm"
     showgrid="false"
     inkscape:snap-to-guides="false"
     inkscape:snap-grids="true"
     inkscape:zoom="0.5"
     inkscape:cx="465"
     inkscape:cy="817"
     inkscape:window-width="1720"
     inkscape:window-height="1377"
     inkscape:window-x="1712"
     inkscape:window-y="-8"
     inkscape:window-maximized="0"
     inkscape:current-layer="layer1"
     showguides="true"
     inkscape:guide-bbox="true">
    <sodipodi:guide
       position="5.4255713,55.655619"
       orientation="1,0"
       id="guide25162" />
  </sodipodi:namedview>
  <defs
     id="defs2" />
  <g
     inkscape:label="Warstwa 1"
     inkscape:groupmode="layer"
     id="layer1">
    <g
       id="g18586"
       transform="translate(0.74835467,-46.023812)">
      <g
         id="g16730"
         style="opacity:0.23;fill:#000000"
         transform="translate(-1.5875001,1.5875)">
        <path
           id="path16720"
           style="color:#000000;opacity:0.97;fill:#000000;stroke-width:3.77953;-inkscape-stroke:none"
           d="m 168.04102,264.4707 c -60.6135,0 -109.945317,49.33182 -109.945317,109.94532 0,60.61348 49.331817,109.93945 109.945317,109.93945 60.61349,0 109.94531,-49.32597 109.94531,-109.93945 0,-60.6135 -49.33182,-109.94532 -109.94531,-109.94532 z m 0,18.06446 c 50.84887,0 91.875,41.03198 91.875,91.88086 0,41.10239 -26.80752,75.78217 -63.93946,87.56836 -2.19511,6.32633 -3.71843,12.96957 -4.48828,19.8457 -5.95552,1.2992 -12.0882,2.11705 -18.35742,2.4043 0.45158,-6.2546 1.43361,-12.36495 2.89258,-18.28907 -2.63094,0.22511 -5.29186,0.34571 -7.98242,0.34571 -50.84888,0 -91.875004,-41.02612 -91.875004,-91.875 0,-50.84888 41.026124,-91.88086 91.875004,-91.88086 z m 10.69336,183.13672 c -0.0886,0.0102 -0.17697,0.0213 -0.26563,0.0312 0.0886,-0.01 0.17709,-0.021 0.26563,-0.0312 z"
           transform="scale(0.26458333)" />
        <path
           id="path16722"
           style="color:#000000;opacity:0.97;fill:#000000;stroke-width:3.77953;-inkscape-stroke:none"
           d="m 397.52148,264.4707 c -60.61346,0 -109.94531,49.33182 -109.94531,109.94532 0,2.68873 0.0982,5.3551 0.28906,7.99609 6.26288,0.28791 12.38827,1.10245 18.33789,2.40039 0.11509,1.02802 0.27918,2.03935 0.42774,3.05664 -0.64091,-4.3913 -0.98438,-8.88024 -0.98438,-13.45312 0,-50.84888 41.02615,-91.88086 91.875,-91.88086 50.8489,0 91.875,41.03198 91.875,91.88086 0,41.09744 -26.8047,75.76636 -63.92968,87.55664 -2.19374,6.32331 -3.71644,12.96335 -4.48633,19.83593 49.38114,-10.78157 86.48828,-54.83059 86.48828,-107.39257 0,-60.6135 -49.33377,-109.94532 -109.94727,-109.94532 z m -90.89062,123.39844 c 0.0371,0.2542 0.0683,0.51016 0.10742,0.76367 -0.0392,-0.25349 -0.0703,-0.50948 -0.10742,-0.76367 z m 0.10742,0.76367 c 0.18887,1.22169 0.41019,2.43168 0.64649,3.63672 -0.2361,-1.20482 -0.45778,-2.41531 -0.64649,-3.63672 z m 0.64649,3.63672 c 0.0742,0.37861 0.1458,0.75786 0.22461,1.13477 -0.0788,-0.37675 -0.1504,-0.75632 -0.22461,-1.13477 z m 0.22461,1.13477 c 0.24295,1.16123 0.51068,2.31255 0.79687,3.45703 -0.286,-1.1444 -0.55409,-2.29589 -0.79687,-3.45703 z m 0.79687,3.45703 c 0.091,0.3642 0.18396,0.7274 0.2793,1.08984 -0.0954,-0.36238 -0.18825,-0.72571 -0.2793,-1.08984 z m 0.2793,1.08984 c 0.30058,1.14214 0.61807,2.27624 0.96093,3.40039 -0.34256,-1.1237 -0.66062,-2.25868 -0.96093,-3.40039 z m 0.96093,3.40039 c 0.11287,0.37024 0.23223,0.73725 0.34961,1.10547 -0.11741,-0.36815 -0.23671,-0.7353 -0.34961,-1.10547 z m 0.34961,1.10547 c 0.23384,0.73316 0.44571,1.47619 0.69727,2.20117 -6.37101,-2.02239 -13.04566,-3.36801 -19.94141,-3.95898 11.8149,47.96795 55.21076,83.65625 106.76953,83.65625 2.26453,0 4.50723,-0.0909 6.73829,-0.22656 -0.54451,0.0331 -1.09011,0.0648 -1.63672,0.0898 0.45157,-6.25459 1.4336,-12.36496 2.89257,-18.28906 0.11333,-0.01 0.22664,-0.0192 0.33985,-0.0293 -2.74617,0.24557 -5.52249,0.39063 -8.33399,0.39063 -41.06194,0 -75.7058,-26.75889 -87.52539,-63.83399 z m 114.05469,59.94922 c -0.92536,0.27743 -1.85741,0.54018 -2.79492,0.78906 0.93756,-0.24864 1.86952,-0.51183 2.79492,-0.78906 z m -4.33203,1.18164 c -0.9224,0.2278 -1.84993,0.44278 -2.7832,0.64258 0.93364,-0.1996 1.86043,-0.41495 2.7832,-0.64258 z m -4.58203,1.00781 c -0.89699,0.17333 -1.79888,0.33333 -2.70508,0.48047 0.90611,-0.14688 1.80817,-0.30742 2.70508,-0.48047 z m -4.48828,0.75196 c -0.89826,0.12783 -1.80049,0.24 -2.70703,0.34179 0.90651,-0.10158 1.80879,-0.21419 2.70703,-0.34179 z m 10.04883,16.52734 c -0.65085,0.14019 -1.30204,0.27567 -1.95704,0.4043 0.6548,-0.12862 1.30643,-0.26407 1.95704,-0.4043 z m -5.49219,1.03906 c -0.63936,0.10392 -1.28087,0.20211 -1.92383,0.29492 0.64317,-0.0928 1.28427,-0.191 1.92383,-0.29492 z m -5.4336,0.74219 c -0.68267,0.0761 -1.36833,0.14549 -2.05468,0.20898 0.68687,-0.0635 1.37148,-0.13283 2.05468,-0.20898 z"
           transform="scale(0.26458333)" />
        <path
           id="path16724"
           style="color:#000000;opacity:0.97;fill:#000000;stroke-width:3.77953;-inkscape-stroke:none"
           d="m 627.00391,264.4707 c -60.6135,0 -109.94727,49.33182 -109.94727,109.94532 0,60.61348 49.33377,109.93945 109.94727,109.93945 60.61349,0 109.94531,-49.32597 109.94531,-109.93945 0,-60.6135 -49.33182,-109.94532 -109.94531,-109.94532 z m 0,18.06446 c 50.84889,0 91.875,41.03198 91.875,91.88086 0,50.84888 -41.02611,91.875 -91.875,91.875 -40.24822,0 -74.33652,-25.70561 -86.80274,-61.63868 -6.37403,-2.02255 -13.05207,-3.36724 -19.95117,-3.95703 -1.45901,-5.92346 -2.44089,-12.0332 -2.89258,-18.28711 6.26899,0.28674 12.40023,1.10169 18.35547,2.40039 -0.38175,-3.41072 -0.58398,-6.87767 -0.58398,-10.39257 0,-50.84888 41.02614,-91.88086 91.875,-91.88086 z"
           transform="scale(0.26458333)" />
        <path
           id="path16726"
           style="color:#000000;opacity:0.97;fill:#000000;stroke-width:3.77953;-inkscape-stroke:none"
           d="m 282.77734,382.28516 c -1.70423,0 -3.39649,0.0518 -5.08203,0.1289 -0.4519,6.25188 -1.43401,12.3596 -2.89258,18.28125 2.62862,-0.2247 5.28648,-0.3457 7.97461,-0.3457 40.24528,0 74.3205,25.70975 86.79102,61.63867 6.37148,2.02163 13.04719,3.36895 19.94336,3.95899 0.9726,3.94919 1.73278,7.98169 2.26562,12.08398 -6.9906,-53.93064 -53.19866,-95.74609 -109,-95.74609 z m -5.08203,0.1289 c 1.4e-4,-0.002 -1.4e-4,-0.004 0,-0.006 -0.0419,0.002 -0.0831,0.006 -0.125,0.008 0.0414,-0.002 0.0836,-6e-5 0.125,-0.002 z m -0.125,0.002 c -0.8262,0.0387 -1.64345,0.10904 -2.46484,0.16601 0.82107,-0.057 1.63888,-0.12728 2.46484,-0.16601 z m -2.46484,0.16601 c -0.88781,0.0616 -1.77632,0.12045 -2.6582,0.20313 0.88206,-0.0827 1.77027,-0.14154 2.6582,-0.20313 z m -2.6582,0.20313 c -0.86538,0.0811 -1.72449,0.18208 -2.58399,0.2832 0.85956,-0.10119 1.71852,-0.20207 2.58399,-0.2832 z m -2.58399,0.2832 c -0.83532,0.0983 -1.66851,0.20327 -2.49805,0.32031 0.82929,-0.11694 1.66299,-0.22206 2.49805,-0.32031 z m -2.49805,0.32031 c -0.85478,0.12054 -1.70627,0.25047 -2.55468,0.39063 0.84811,-0.14017 1.70024,-0.27007 2.55468,-0.39063 z m -2.55468,0.39063 c -0.83385,0.1378 -1.66272,0.28878 -2.49024,0.44531 0.82738,-0.15645 1.65648,-0.30758 2.49024,-0.44531 z m -2.49024,0.44531 c -0.83017,0.15698 -1.66085,0.31073 -2.48437,0.48633 0.82357,-0.17563 1.65423,-0.32931 2.48437,-0.48633 z m -2.48437,0.48633 c -0.16711,0.0356 -0.33708,0.0632 -0.50391,0.0996 -6.6e-4,0.006 -10e-4,0.0117 -0.002,0.0176 0.1694,-0.037 0.33616,-0.081 0.50586,-0.11718 z m -0.50586,0.11718 c -49.38519,10.77704 -86.49024,54.83023 -86.49024,107.39649 0,60.61353 49.32401,109.94531 109.9375,109.94531 60.6135,0 109.94727,-49.33178 109.94727,-109.94531 0,-2.68925 -0.12942,-5.34679 -0.32031,-7.98828 -6.5e-4,-3e-5 -10e-4,3e-5 -0.002,0 -6.26237,-0.28704 -12.38847,-1.10354 -18.33789,-2.40039 0.38187,3.41091 0.59571,6.87356 0.59571,10.38867 0,50.84889 -41.03394,91.88281 -91.88282,91.88281 -50.84887,0 -91.875,-41.03392 -91.875,-91.88281 0,-41.10172 26.80844,-75.78163 63.93946,-87.56836 2.19336,-6.32127 3.71782,-12.95788 4.48828,-19.82813 z m 12.98633,16.11329 c -0.0625,0.007 -0.12502,0.0143 -0.1875,0.0215 0.0625,-0.007 0.125,-0.0144 0.1875,-0.0215 z m 119.53906,77.70117 c 0.18029,1.45214 0.33258,2.91381 0.45508,4.38281 -0.12251,-1.46964 -0.27506,-2.92997 -0.45508,-4.38281 z"
           transform="scale(0.26458333)" />
        <path
           id="path16728"
           style="color:#000000;opacity:0.97;fill:#000000;stroke-width:3.77953;-inkscape-stroke:none"
           d="m 512.25977,382.28516 c -1.70095,0 -3.39189,0.0462 -5.07422,0.12304 -0.4522,6.24844 -1.43284,12.35298 -2.89063,18.27149 -6.9027,0.5901 -13.58389,1.93663 -19.96094,3.96093 2.19381,-6.32244 3.71798,-12.96036 4.48829,-19.83203 -49.39342,10.77079 -86.50196,54.84406 -86.50196,107.41602 0,60.61353 49.32596,109.94531 109.93946,109.94531 60.61348,0 109.94531,-49.33178 109.94531,-109.94531 0,-2.68672 -0.0966,-5.35118 -0.28711,-7.99023 -6.26786,-0.28741 -12.39924,-1.10536 -18.35352,-2.4043 -0.003,-0.0257 -0.009,-0.0505 -0.0117,-0.0762 0.38746,3.43536 0.5879,6.92952 0.58789,10.4707 0,50.84889 -41.03201,91.88281 -91.88085,91.88281 -50.8489,0 -91.875,-41.03392 -91.875,-91.88281 0,-50.84886 41.0261,-91.875 91.875,-91.875 40.30197,0 74.43677,25.77286 86.86328,61.78125 -0.0167,-0.0483 -0.0301,-0.0982 -0.0469,-0.14648 6.37433,2.02329 13.05356,3.37061 19.95313,3.96093 -11.81412,-47.96909 -55.21008,-83.66015 -106.76953,-83.66015 z m 106.77148,83.66992 c 0.35904,1.45844 0.68785,2.92782 0.98828,4.4082 -0.29999,-1.48039 -0.62925,-2.94985 -0.98828,-4.4082 z m -18.47656,0.70898 c 0.0216,0.0749 0.0431,0.14962 0.0644,0.22461 -0.0214,-0.075 -0.0429,-0.1497 -0.0644,-0.22461 z m 19.49023,3.82617 c 0.29529,1.46394 0.5624,2.93971 0.79883,4.42383 -0.23595,-1.48502 -0.50381,-2.95904 -0.79883,-4.42383 z m -18.20898,1.13868 c 0.0121,0.0532 0.0231,0.10687 0.0351,0.16015 -0.012,-0.0533 -0.023,-0.10689 -0.0351,-0.16015 z m 19.02734,3.41601 c 0.2275,1.43927 0.425,2.88667 0.5957,4.34375 -0.1702,-1.45651 -0.36888,-2.90501 -0.5957,-4.34375 z m -18.0293,1.61133 c 0.006,0.0378 0.0132,0.0755 0.0195,0.11328 -0.006,-0.0378 -0.0131,-0.0755 -0.0195,-0.11328 z m 18.66797,3.09961 c 0.16166,1.42145 0.29605,2.85181 0.40235,4.28906 -0.10627,-1.43736 -0.24107,-2.86741 -0.40235,-4.28906 z"
           transform="scale(0.26458333)" />
      </g>
      <g
         id="g16718">
        <path
           id="path864"
           style="color:#000000;opacity:0.97;fill:#0000ff;stroke-width:3.77953;-inkscape-stroke:none"
           d="m 168.04102,264.4707 c -60.6135,0 -109.945317,49.33182 -109.945317,109.94532 0,60.61348 49.331817,109.93945 109.945317,109.93945 60.61349,0 109.94531,-49.32597 109.94531,-109.93945 0,-60.6135 -49.33182,-109.94532 -109.94531,-109.94532 z m 0,18.06446 c 50.84887,0 91.875,41.03198 91.875,91.88086 0,41.10239 -26.80752,75.78217 -63.93946,87.56836 -2.19511,6.32633 -3.71843,12.96957 -4.48828,19.8457 -5.95552,1.2992 -12.0882,2.11705 -18.35742,2.4043 0.45158,-6.2546 1.43361,-12.36495 2.89258,-18.28907 -2.63094,0.22511 -5.29186,0.34571 -7.98242,0.34571 -50.84888,0 -91.875004,-41.02612 -91.875004,-91.875 0,-50.84888 41.026124,-91.88086 91.875004,-91.88086 z m 10.69336,183.13672 c -0.0886,0.0102 -0.17697,0.0213 -0.26563,0.0312 0.0886,-0.01 0.17709,-0.021 0.26563,-0.0312 z"
           transform="scale(0.26458333)" />
        <path
           id="circle994"
           style="color:#000000;opacity:0.97;fill:#000000;stroke-width:3.77953;-inkscape-stroke:none"
           d="m 397.52148,264.4707 c -60.61346,0 -109.94531,49.33182 -109.94531,109.94532 0,2.68873 0.0982,5.3551 0.28906,7.99609 6.26288,0.28791 12.38827,1.10245 18.33789,2.40039 0.11509,1.02802 0.27918,2.03935 0.42774,3.05664 -0.64091,-4.3913 -0.98438,-8.88024 -0.98438,-13.45312 0,-50.84888 41.02615,-91.88086 91.875,-91.88086 50.8489,0 91.875,41.03198 91.875,91.88086 0,41.09744 -26.8047,75.76636 -63.92968,87.55664 -2.19374,6.32331 -3.71644,12.96335 -4.48633,19.83593 49.38114,-10.78157 86.48828,-54.83059 86.48828,-107.39257 0,-60.6135 -49.33377,-109.94532 -109.94727,-109.94532 z m -90.89062,123.39844 c 0.0371,0.2542 0.0683,0.51016 0.10742,0.76367 -0.0392,-0.25349 -0.0703,-0.50948 -0.10742,-0.76367 z m 0.10742,0.76367 c 0.18887,1.22169 0.41019,2.43168 0.64649,3.63672 -0.2361,-1.20482 -0.45778,-2.41531 -0.64649,-3.63672 z m 0.64649,3.63672 c 0.0742,0.37861 0.1458,0.75786 0.22461,1.13477 -0.0788,-0.37675 -0.1504,-0.75632 -0.22461,-1.13477 z m 0.22461,1.13477 c 0.24295,1.16123 0.51068,2.31255 0.79687,3.45703 -0.286,-1.1444 -0.55409,-2.29589 -0.79687,-3.45703 z m 0.79687,3.45703 c 0.091,0.3642 0.18396,0.7274 0.2793,1.08984 -0.0954,-0.36238 -0.18825,-0.72571 -0.2793,-1.08984 z m 0.2793,1.08984 c 0.30058,1.14214 0.61807,2.27624 0.96093,3.40039 -0.34256,-1.1237 -0.66062,-2.25868 -0.96093,-3.40039 z m 0.96093,3.40039 c 0.11287,0.37024 0.23223,0.73725 0.34961,1.10547 -0.11741,-0.36815 -0.23671,-0.7353 -0.34961,-1.10547 z m 0.34961,1.10547 c 0.23384,0.73316 0.44571,1.47619 0.69727,2.20117 -6.37101,-2.02239 -13.04566,-3.36801 -19.94141,-3.95898 11.8149,47.96795 55.21076,83.65625 106.76953,83.65625 2.26453,0 4.50723,-0.0909 6.73829,-0.22656 -0.54451,0.0331 -1.09011,0.0648 -1.63672,0.0898 0.45157,-6.25459 1.4336,-12.36496 2.89257,-18.28906 0.11333,-0.01 0.22664,-0.0192 0.33985,-0.0293 -2.74617,0.24557 -5.52249,0.39063 -8.33399,0.39063 -41.06194,0 -75.7058,-26.75889 -87.52539,-63.83399 z m 114.05469,59.94922 c -0.92536,0.27743 -1.85741,0.54018 -2.79492,0.78906 0.93756,-0.24864 1.86952,-0.51183 2.79492,-0.78906 z m -4.33203,1.18164 c -0.9224,0.2278 -1.84993,0.44278 -2.7832,0.64258 0.93364,-0.1996 1.86043,-0.41495 2.7832,-0.64258 z m -4.58203,1.00781 c -0.89699,0.17333 -1.79888,0.33333 -2.70508,0.48047 0.90611,-0.14688 1.80817,-0.30742 2.70508,-0.48047 z m -4.48828,0.75196 c -0.89826,0.12783 -1.80049,0.24 -2.70703,0.34179 0.90651,-0.10158 1.80879,-0.21419 2.70703,-0.34179 z m 10.04883,16.52734 c -0.65085,0.14019 -1.30204,0.27567 -1.95704,0.4043 0.6548,-0.12862 1.30643,-0.26407 1.95704,-0.4043 z m -5.49219,1.03906 c -0.63936,0.10392 -1.28087,0.20211 -1.92383,0.29492 0.64317,-0.0928 1.28427,-0.191 1.92383,-0.29492 z m -5.4336,0.74219 c -0.68267,0.0761 -1.36833,0.14549 -2.05468,0.20898 0.68687,-0.0635 1.37148,-0.13283 2.05468,-0.20898 z"
           transform="scale(0.26458333)" />
        <path
           id="circle996"
           style="color:#000000;opacity:0.97;fill:#ff0000;stroke-width:3.77953;-inkscape-stroke:none"
           d="m 627.00391,264.4707 c -60.6135,0 -109.94727,49.33182 -109.94727,109.94532 0,60.61348 49.33377,109.93945 109.94727,109.93945 60.61349,0 109.94531,-49.32597 109.94531,-109.93945 0,-60.6135 -49.33182,-109.94532 -109.94531,-109.94532 z m 0,18.06446 c 50.84889,0 91.875,41.03198 91.875,91.88086 0,50.84888 -41.02611,91.875 -91.875,91.875 -40.24822,0 -74.33652,-25.70561 -86.80274,-61.63868 -6.37403,-2.02255 -13.05207,-3.36724 -19.95117,-3.95703 -1.45901,-5.92346 -2.44089,-12.0332 -2.89258,-18.28711 6.26899,0.28674 12.40023,1.10169 18.35547,2.40039 -0.38175,-3.41072 -0.58398,-6.87767 -0.58398,-10.39257 0,-50.84888 41.02614,-91.88086 91.875,-91.88086 z"
           transform="scale(0.26458333)" />
        <path
           id="circle16220"
           style="color:#000000;opacity:0.97;fill:#ffcc00;stroke-width:3.77953;-inkscape-stroke:none"
           d="m 282.77734,382.28516 c -1.70423,0 -3.39649,0.0518 -5.08203,0.1289 -0.4519,6.25188 -1.43401,12.3596 -2.89258,18.28125 2.62862,-0.2247 5.28648,-0.3457 7.97461,-0.3457 40.24528,0 74.3205,25.70975 86.79102,61.63867 6.37148,2.02163 13.04719,3.36895 19.94336,3.95899 0.9726,3.94919 1.73278,7.98169 2.26562,12.08398 -6.9906,-53.93064 -53.19866,-95.74609 -109,-95.74609 z m -5.08203,0.1289 c 1.4e-4,-0.002 -1.4e-4,-0.004 0,-0.006 -0.0419,0.002 -0.0831,0.006 -0.125,0.008 0.0414,-0.002 0.0836,-6e-5 0.125,-0.002 z m -0.125,0.002 c -0.8262,0.0387 -1.64345,0.10904 -2.46484,0.16601 0.82107,-0.057 1.63888,-0.12728 2.46484,-0.16601 z m -2.46484,0.16601 c -0.88781,0.0616 -1.77632,0.12045 -2.6582,0.20313 0.88206,-0.0827 1.77027,-0.14154 2.6582,-0.20313 z m -2.6582,0.20313 c -0.86538,0.0811 -1.72449,0.18208 -2.58399,0.2832 0.85956,-0.10119 1.71852,-0.20207 2.58399,-0.2832 z m -2.58399,0.2832 c -0.83532,0.0983 -1.66851,0.20327 -2.49805,0.32031 0.82929,-0.11694 1.66299,-0.22206 2.49805,-0.32031 z m -2.49805,0.32031 c -0.85478,0.12054 -1.70627,0.25047 -2.55468,0.39063 0.84811,-0.14017 1.70024,-0.27007 2.55468,-0.39063 z m -2.55468,0.39063 c -0.83385,0.1378 -1.66272,0.28878 -2.49024,0.44531 0.82738,-0.15645 1.65648,-0.30758 2.49024,-0.44531 z m -2.49024,0.44531 c -0.83017,0.15698 -1.66085,0.31073 -2.48437,0.48633 0.82357,-0.17563 1.65423,-0.32931 2.48437,-0.48633 z m -2.48437,0.48633 c -0.16711,0.0356 -0.33708,0.0632 -0.50391,0.0996 -6.6e-4,0.006 -0.001,0.0117 -0.002,0.0176 0.1694,-0.037 0.33616,-0.081 0.50586,-0.11718 z m -0.50586,0.11718 c -49.38519,10.77704 -86.49024,54.83023 -86.49024,107.39649 0,60.61353 49.32401,109.94531 109.9375,109.94531 60.6135,0 109.94727,-49.33178 109.94727,-109.94531 0,-2.68925 -0.12942,-5.34679 -0.32031,-7.98828 -6.5e-4,-3e-5 -0.001,3e-5 -0.002,0 -6.26237,-0.28704 -12.38847,-1.10354 -18.33789,-2.40039 0.38187,3.41091 0.59571,6.87356 0.59571,10.38867 0,50.84889 -41.03394,91.88281 -91.88282,91.88281 -50.84887,0 -91.875,-41.03392 -91.875,-91.88281 0,-41.10172 26.80844,-75.78163 63.93946,-87.56836 2.19336,-6.32127 3.71782,-12.95788 4.48828,-19.82813 z m 12.98633,16.11329 c -0.0625,0.007 -0.12502,0.0143 -0.1875,0.0215 0.0625,-0.007 0.125,-0.0144 0.1875,-0.0215 z m 119.53906,77.70117 c 0.18029,1.45214 0.33258,2.91381 0.45508,4.38281 -0.12251,-1.46964 -0.27506,-2.92997 -0.45508,-4.38281 z"
           transform="scale(0.26458333)" />
        <path
           id="circle16222"
           style="color:#000000;opacity:0.97;fill:#008000;stroke-width:3.77953;-inkscape-stroke:none"
           d="m 512.25977,382.28516 c -1.70095,0 -3.39189,0.0462 -5.07422,0.12304 -0.4522,6.24844 -1.43284,12.35298 -2.89063,18.27149 -6.9027,0.5901 -13.58389,1.93663 -19.96094,3.96093 2.19381,-6.32244 3.71798,-12.96036 4.48829,-19.83203 -49.39342,10.77079 -86.50196,54.84406 -86.50196,107.41602 0,60.61353 49.32596,109.94531 109.93946,109.94531 60.61348,0 109.94531,-49.33178 109.94531,-109.94531 0,-2.68672 -0.0966,-5.35118 -0.28711,-7.99023 -6.26786,-0.28741 -12.39924,-1.10536 -18.35352,-2.4043 -0.003,-0.0257 -0.009,-0.0505 -0.0117,-0.0762 0.38746,3.43536 0.5879,6.92952 0.58789,10.4707 0,50.84889 -41.03201,91.88281 -91.88085,91.88281 -50.8489,0 -91.875,-41.03392 -91.875,-91.88281 0,-50.84886 41.0261,-91.875 91.875,-91.875 40.30197,0 74.43677,25.77286 86.86328,61.78125 -0.0167,-0.0483 -0.0301,-0.0982 -0.0469,-0.14648 6.37433,2.02329 13.05356,3.37061 19.95313,3.96093 -11.81412,-47.96909 -55.21008,-83.66015 -106.76953,-83.66015 z m 106.77148,83.66992 c 0.35904,1.45844 0.68785,2.92782 0.98828,4.4082 -0.29999,-1.48039 -0.62925,-2.94985 -0.98828,-4.4082 z m -18.47656,0.70898 c 0.0216,0.0749 0.0431,0.14962 0.0644,0.22461 -0.0214,-0.075 -0.0429,-0.1497 -0.0644,-0.22461 z m 19.49023,3.82617 c 0.29529,1.46394 0.5624,2.93971 0.79883,4.42383 -0.23595,-1.48502 -0.50381,-2.95904 -0.79883,-4.42383 z m -18.20898,1.13868 c 0.0121,0.0532 0.0231,0.10687 0.0351,0.16015 -0.012,-0.0533 -0.023,-0.10689 -0.0351,-0.16015 z m 19.02734,3.41601 c 0.2275,1.43927 0.425,2.88667 0.5957,4.34375 -0.1702,-1.45651 -0.36888,-2.90501 -0.5957,-4.34375 z m -18.0293,1.61133 c 0.006,0.0378 0.0132,0.0755 0.0195,0.11328 -0.006,-0.0378 -0.0131,-0.0755 -0.0195,-0.11328 z m 18.66797,3.09961 c 0.16166,1.42145 0.29605,2.85181 0.40235,4.28906 -0.10627,-1.43736 -0.24107,-2.86741 -0.40235,-4.28906 z"
           transform="scale(0.26458333)" />
      </g>
    </g>
    <g
       id="g25445"
       transform="translate(-3.175,-24.341667)">
      <path
         id="path18610"
         style="fill:#0000ff;fill-opacity:0.972549;stroke:none;stroke-width:13.1435;stroke-miterlimit:4;stroke-dasharray:none"
         d="m 207.18164,656.54883 a 100.40916,100.40916 0 0 0 -100.4082,100.4082 100.40916,100.40916 0 0 0 100.4082,100.41016 100.40916,100.40916 0 0 0 8.61133,-0.37696 100.40916,100.40916 0 0 1 3.07617,-15.13671 86.474827,86.474827 0 0 1 -10.86719,0.75976 86.474827,86.474827 0 0 1 -86.47461,-86.47461 86.474827,86.474827 0 0 1 86.47461,-86.47461 86.474827,86.474827 0 0 1 86.47461,86.47461 86.474827,86.474827 0 0 1 -59.16601,82.01758 86.474826,86.474826 0 0 0 -4.43946,16.37109 100.40916,100.40916 0 0 0 76.72071,-97.57031 100.40916,100.40916 0 0 0 -100.41016,-100.4082 z m 8.61133,200.4414 a 100.40916,100.40916 0 0 0 7.54687,-0.9375 100.40916,100.40916 0 0 1 -7.54687,0.9375 z m 19.41797,-18.80273 a 86.474827,86.474827 0 0 1 -4.40821,1.31055 86.474826,86.474826 0 0 0 4.40821,-1.31055 z m -7.80078,2.16211 a 86.474827,86.474827 0 0 1 -1.125,0.23437 86.474826,86.474826 0 0 0 1.125,-0.23437 z m 3.44726,14.18164 a 100.40916,100.40916 0 0 1 -3.71875,0.82617 100.40916,100.40916 0 0 0 3.71875,-0.82617 z m -3.71875,0.82617 a 100.40916,100.40916 0 0 1 -3.6875,0.67578 100.40916,100.40916 0 0 0 3.6875,-0.67578 z"
         transform="scale(0.26458333)" />
      <path
         id="path18845"
         style="fill:#000000;fill-opacity:0.972549;stroke:none;stroke-width:13.1435;stroke-miterlimit:4;stroke-dasharray:none"
         d="M 423.55664,656.54883 A 100.40916,100.40916 0 0 0 323.14844,756.95703 100.40916,100.40916 0 0 0 423.55664,857.36719 100.40916,100.40916 0 0 0 523.9668,756.95703 100.40916,100.40916 0 0 0 423.55664,656.54883 Z m 0.82031,13.11523 a 86.474826,86.474826 0 0 1 86.47461,86.47461 86.474826,86.474826 0 0 1 -59.16406,82.02149 86.474826,86.474826 0 0 0 -4.44141,16.35546 100.40916,100.40916 0 0 1 -15.07617,2.45899 100.40916,100.40916 0 0 1 3.06446,-15.07031 86.474826,86.474826 0 0 1 -10.85743,0.70898 86.474826,86.474826 0 0 1 -80.92187,-56.05664 86.474824,86.474824 0 0 0 -16.82031,-3.64062 100.40916,100.40916 0 0 1 -2.62696,-13.32032 100.40916,100.40916 0 0 1 15.39258,2.52149 86.474826,86.474826 0 0 1 -1.49805,-15.97852 86.474826,86.474826 0 0 1 86.47461,-86.47461 z"
         transform="scale(0.26458333)" />
      <path
         id="path25156"
         style="fill:#ff0000;fill-opacity:0.972549;stroke:none;stroke-width:13.1435;stroke-miterlimit:4;stroke-dasharray:none"
         d="m 639.93164,656.54883 a 100.40916,100.40916 0 0 0 -100.4082,100.4082 100.40916,100.40916 0 0 0 0.85937,12.63867 100.40916,100.40916 0 0 1 15.44336,2.53321 86.474827,86.474827 0 0 1 -1.54883,-15.99024 86.474827,86.474827 0 0 1 86.47461,-86.47461 86.474827,86.474827 0 0 1 86.47461,86.47461 86.474827,86.474827 0 0 1 -86.47461,86.47461 86.474827,86.474827 0 0 1 -80.86914,-56.04101 86.474825,86.474825 0 0 0 -0.002,0 86.474825,86.474825 0 0 0 -16.87109,-3.65625 100.40916,100.40916 0 0 0 96.92187,74.45117 A 100.40916,100.40916 0 0 0 740.3418,756.95703 100.40916,100.40916 0 0 0 639.93164,656.54883 Z M 540.38281,769.5957 a 100.40916,100.40916 0 0 0 2.62696,13.31836 100.40916,100.40916 0 0 1 -2.62696,-13.31836 z"
         transform="scale(0.26458333)" />
      <path
         id="path25158"
         style="fill:#ffff00;fill-opacity:0.972549;stroke:none;stroke-width:13.1435;stroke-miterlimit:4;stroke-dasharray:none"
         d="m 315.36914,768.97852 a 100.40916,100.40916 0 0 0 -8.55469,0.41015 100.40916,100.40916 0 0 1 -2.65039,13.55274 86.474826,86.474826 0 0 1 12.02539,-0.84766 86.474826,86.474826 0 0 1 80.69141,56.00781 86.474826,86.474826 0 0 0 14.94922,3.54297 100.40916,100.40916 0 0 0 -96.46094,-72.66601 z m -8.55469,0.41015 a 100.40916,100.40916 0 0 0 0.002,-0.0117 100.40916,100.40916 0 0 0 -6.75196,0.79883 100.40916,100.40916 0 0 1 6.75,-0.78711 z m -7.07422,0.83789 a 100.40916,100.40916 0 0 0 -6.5039,1.23047 100.40916,100.40916 0 0 1 6.5039,-1.23047 z M 293.06055,771.5 a 100.40916,100.40916 0 0 0 -78.09961,97.88672 100.40916,100.40916 0 0 0 100.4082,100.41016 100.40916,100.40916 0 0 0 100.41016,-100.41016 100.40916,100.40916 0 0 0 -0.88868,-12.43164 100.40916,100.40916 0 0 1 -13.32031,-2.03711 86.474826,86.474826 0 0 1 1.09375,13.65039 86.474826,86.474826 0 0 1 -86.47461,86.47461 86.474826,86.474826 0 0 1 -86.47461,-86.47461 86.474826,86.474826 0 0 1 59.16993,-82.03125 86.474825,86.474825 0 0 0 4.17578,-15.03711 z m 108.50976,83.41797 a 86.474825,86.474825 0 0 0 -2.58008,-10.74609 86.474826,86.474826 0 0 1 2.58008,10.74609 z m 13.32031,2.03711 a 100.40916,100.40916 0 0 0 -0.48828,-3.48828 100.40916,100.40916 0 0 1 0.48828,3.48828 z"
         transform="scale(0.26458333)" />
      <path
         id="path25160"
         style="fill:#008000;fill-opacity:0.972549;stroke:none;stroke-width:13.1435;stroke-miterlimit:4;stroke-dasharray:none"
         d="m 531.74414,768.97852 a 100.40916,100.40916 0 0 0 -8.58203,0.41015 100.40916,100.40916 0 0 1 -2.64649,13.55469 86.474826,86.474826 0 0 1 12.04883,-0.84961 86.474826,86.474826 0 0 1 80.69141,56.00781 86.474826,86.474826 0 0 0 14.94922,3.54297 100.40916,100.40916 0 0 0 -96.46094,-72.66601 z m -8.58203,0.41015 a 100.40916,100.40916 0 0 0 0.002,-0.008 100.40916,100.40916 0 0 0 -6.79492,0.80664 100.40916,100.40916 0 0 1 6.79297,-0.79883 z m -7.0918,0.84375 a 100.40916,100.40916 0 0 0 -6.52343,1.24024 100.40916,100.40916 0 0 1 6.52343,-1.24024 z m -6.72851,1.29102 a 100.40916,100.40916 0 0 0 -78.00586,97.86328 100.40916,100.40916 0 0 0 100.4082,100.41016 100.40916,100.40916 0 0 0 100.41016,-100.41016 100.40916,100.40916 0 0 0 -0.88868,-12.43164 100.40916,100.40916 0 0 1 -13.32031,-2.03711 86.474826,86.474826 0 0 1 1.09375,13.65039 86.474826,86.474826 0 0 1 -86.47461,86.47461 86.474826,86.474826 0 0 1 -86.47461,-86.47461 86.474826,86.474826 0 0 1 58.98047,-81.9707 86.474824,86.474824 0 0 0 4.27149,-15.07422 z m 108.60351,83.39453 a 86.474825,86.474825 0 0 0 -2.58008,-10.74609 86.474826,86.474826 0 0 1 2.58008,10.74609 z m 13.32031,2.03711 a 100.40916,100.40916 0 0 0 -0.48828,-3.48828 100.40916,100.40916 0 0 1 0.48828,3.48828 z"
         transform="scale(0.26458333)" />
    </g>
  </g>
</svg>
